<?xml version="1.0" encoding="UTF-8" standalone="no"?>
<!-- Created with Inkscape (http://www.inkscape.org/) -->

<svg
   xmlns:dc="http://purl.org/dc/elements/1.1/"
   xmlns:cc="http://creativecommons.org/ns#"
   xmlns:rdf="http://www.w3.org/1999/02/22-rdf-syntax-ns#"
   xmlns:svg="http://www.w3.org/2000/svg"
   xmlns="http://www.w3.org/2000/svg"
   xmlns:sodipodi="http://sodipodi.sourceforge.net/DTD/sodipodi-0.dtd"
   xmlns:inkscape="http://www.inkscape.org/namespaces/inkscape"
   width="25.799999cm"
   height="8.6999998cm"
   viewBox="0 0 914.17323 308.2677"
   id="svg2"
   version="1.1"
   inkscape:version="0.91 r13725"
   sodipodi:docname="bottom.svg">
  <defs
     id="defs4" />
  <sodipodi:namedview
     id="base"
     pagecolor="#ffffff"
     bordercolor="#666666"
     borderopacity="1.0"
     inkscape:pageopacity="0.0"
     inkscape:pageshadow="2"
     inkscape:zoom="2.8284273"
     inkscape:cx="869.17233"
     inkscape:cy="92.666986"
     inkscape:document-units="mm"
     inkscape:current-layer="text3871"
     showgrid="true"
     inkscape:window-width="2556"
     inkscape:window-height="1377"
     inkscape:window-x="0"
     inkscape:window-y="30"
     inkscape:window-maximized="0"
     units="cm"
     objecttolerance="10000"
     guidetolerance="10000">
    <inkscape:grid
       type="xygrid"
       id="grid4653"
       units="mm"
       spacingx="3.5433071"
       spacingy="3.5433071" />
  </sodipodi:namedview>
  <metadata
     id="metadata7">
    <rdf:RDF>
      <cc:Work
         rdf:about="">
        <dc:format>image/svg+xml</dc:format>
        <dc:type
           rdf:resource="http://purl.org/dc/dcmitype/StillImage" />
        <dc:title />
      </cc:Work>
    </rdf:RDF>
  </metadata>
  <g
     inkscape:label="Layer 1"
     inkscape:groupmode="layer"
     id="layer1"
     transform="translate(0,-744.09452)">
    <rect
       style="fill:none;stroke:#ff0000;stroke-width:0.03545864;stroke-miterlimit:4;stroke-dasharray:none;stroke-opacity:1"
       id="rect3847"
       width="899.96454"
       height="294.05902"
       x="7.1043434"
       y="751.19885"
       ry="16.005167" />
    <circle
       style="fill:none;stroke:#ff0000;stroke-width:0.03702799;stroke-miterlimit:4;stroke-dasharray:none;stroke-opacity:1"
       id="path4700"
       cx="17.716536"
       cy="761.81104"
       r="3.8791237" />
    <circle
       style="fill:none;stroke:#ff0000;stroke-width:0.03702799;stroke-miterlimit:4;stroke-dasharray:none;stroke-opacity:1"
       id="path4700-5"
       cx="457.08661"
       cy="761.81104"
       r="3.8791237" />
    <circle
       style="fill:none;stroke:#ff0000;stroke-width:0.03702799;stroke-miterlimit:4;stroke-dasharray:none;stroke-opacity:1"
       id="path4700-3"
       cx="896.45667"
       cy="761.81104"
       r="3.8791237" />
    <circle
       style="fill:none;stroke:#ff0000;stroke-width:0.037028;stroke-miterlimit:4;stroke-dasharray:none;stroke-opacity:1"
       id="path4700-1"
       cx="17.716537"
       cy="1034.6458"
       r="3.8791237" />
    <circle
       style="fill:none;stroke:#ff0000;stroke-width:0.037028;stroke-miterlimit:4;stroke-dasharray:none;stroke-opacity:1"
       id="path4700-5-2"
       cx="457.08615"
       cy="1034.6458"
       r="3.8791237" />
    <circle
       style="fill:none;stroke:#ff0000;stroke-width:0.037028;stroke-miterlimit:4;stroke-dasharray:none;stroke-opacity:1"
       id="path4700-3-7"
       cx="896.45581"
       cy="1034.6458"
       r="3.8791237" />
    <flowRoot
       xml:space="preserve"
       id="flowRoot3863"
       style="fill:black;stroke:none;stroke-opacity:1;stroke-width:1px;stroke-linejoin:miter;stroke-linecap:butt;fill-opacity:1;font-family:Bitter;font-style:normal;font-weight:normal;font-size:40px;line-height:125%;letter-spacing:0px;word-spacing:0px;-inkscape-font-specification:Bitter;font-stretch:normal;font-variant:normal;"><flowRegion
         id="flowRegion3865"><rect
           id="rect3867"
           width="194.88188"
           height="70.866142"
           x="673.22833"
           y="24.803143"
           style="-inkscape-font-specification:Bitter;font-family:Bitter;font-weight:normal;font-style:normal;font-stretch:normal;font-variant:normal;" /></flowRegion><flowPara
         id="flowPara3869" /></flowRoot>    <g
       transform="scale(-1,-1)"
       style="font-style:normal;font-weight:normal;font-size:40px;line-height:125%;font-family:sans-serif;letter-spacing:0px;word-spacing:0px;fill:#00ff00;fill-opacity:1;stroke:none;stroke-width:1px;stroke-linecap:butt;stroke-linejoin:miter;stroke-opacity:1"
       id="text3871">
      <path
         d="m -845.5775,-805.96549 0,1.4625 -4.8375,0.1125 0,-22.5 4.8375,0.1125 0,1.4625 -2.7,0.2475 0,18.855 2.7,0.2475 z"
         style="font-style:normal;font-variant:normal;font-weight:normal;font-stretch:normal;font-size:22.5px;font-family:Bitter;-inkscape-font-specification:Bitter;fill:none;fill-opacity:1;stroke:#000000;stroke-opacity:1;stroke-width:0.03543307;stroke-miterlimit:4;stroke-dasharray:none"
         id="path11660" />
      <path
         d="m -837.41668,-811.52299 0,1.9575 -6.4125,0 0,-1.9575 1.6875,-0.5625 0,-10.6875 -1.6875,-0.675 0,-1.8675 5.805,-0.1125 3.375,7.4925 3.5325,-7.38 5.4,-0.1125 0,1.98 -1.62,0.675 0,10.6875 1.6875,0.5625 0,1.9575 -6.705,0 0,-1.9575 1.755,-0.5625 0,-8.5275 q -0.405,1.0575 -0.945,2.205 -0.5175,1.125 -1.1925,2.475 -0.6525,1.3275 -1.0125,2.0925 l -2.43,0.1125 -2.5875,-5.3325 -0.3825,-1.17 0,8.145 1.7325,0.5625 z"
         style="font-weight:bold;font-size:22.5px;fill:none;fill-opacity:1;stroke:#000000;stroke-opacity:1;stroke-width:0.03543307;stroke-miterlimit:4;stroke-dasharray:none"
         id="path11662" />
      <path
         d="m -816.26774,-825.69799 q 3.375,0 5.22,2.115 1.8675,2.0925 1.8675,5.8725 0,3.8025 -2.0925,6.12 -2.07,2.3175 -5.445,2.3175 -3.375,0 -5.175,-2.07 -1.8,-2.07 -1.8,-6.03 0,-3.87 1.98,-6.0975 2.0025,-2.2275 5.445,-2.2275 z m -0.1125,2.8125 q -1.755,0 -2.655,1.26 -0.9,1.2375 -0.9,4.14 0,2.7675 0.81,4.095 0.8325,1.305 2.52,1.305 1.7775,0 2.7,-1.2825 0.945,-1.305 0.945,-4.23 0,-2.745 -0.855,-4.005 -0.855,-1.2825 -2.565,-1.2825 z"
         style="font-weight:bold;font-size:22.5px;fill:none;fill-opacity:1;stroke:#000000;stroke-opacity:1;stroke-width:0.03543307;stroke-miterlimit:4;stroke-dasharray:none"
         id="path11664" />
      <path
         d="m -806.7534,-809.56549 0,-1.9575 1.6875,-0.5625 0,-10.6875 -1.6875,-0.675 0,-1.8675 5.175,-0.1125 2.1375,0 q 3.42,0 5.2875,1.98 1.8675,1.98 1.8675,5.7375 0,3.78 -2.025,5.9625 -2.025,2.1825 -5.4675,2.1825 l -6.975,0 z m 5.175,-13.2075 0,10.575 1.8675,0 q 1.755,0 2.7,-1.2375 0.945,-1.26 0.945,-4.1625 0,-2.745 -0.9,-3.96 -0.8775,-1.215 -2.5875,-1.215 l -2.025,0 z"
         style="font-weight:bold;font-size:22.5px;fill:none;fill-opacity:1;stroke:#000000;stroke-opacity:1;stroke-width:0.03543307;stroke-miterlimit:4;stroke-dasharray:none"
         id="path11666" />
      <path
         d="m -785.07535,-822.77299 0,3.7575 4.545,0 0,2.475 -4.545,0 0,4.3425 3.9825,0 0.5175,-1.8675 2.07,0 0,4.5 -11.745,0 0,-1.9575 1.6875,-0.5625 0,-10.6875 -1.6875,-0.675 0,-1.8675 5.175,-0.1125 6.3,0 0,4.3425 -2.0925,0 -0.5625,-1.6875 -3.645,0 z"
         style="font-weight:bold;font-size:22.5px;fill:none;fill-opacity:1;stroke:#000000;stroke-opacity:1;stroke-width:0.03543307;stroke-miterlimit:4;stroke-dasharray:none"
         id="path11668" />
      <path
         d="m -771.64391,-804.39049 -4.8375,-0.1125 0,-1.4625 2.7,-0.2475 0,-18.855 -2.7,-0.2475 0,-1.4625 4.8375,-0.1125 0,22.5 z"
         style="font-style:normal;font-variant:normal;font-weight:normal;font-stretch:normal;font-size:22.5px;font-family:Bitter;-inkscape-font-specification:Bitter;fill:none;fill-opacity:1;stroke:#000000;stroke-opacity:1;stroke-width:0.03543307;stroke-miterlimit:4;stroke-dasharray:none"
         id="path11670" />
      <path
         d="m -762.29059,-810.91549 0,1.35 -6.4125,0 0,-1.35 1.9125,-0.45 0,-12.15 -1.9125,-0.45 0,-1.2375 6.4125,-0.1125 0,1.35 -2.1375,0.45 0,4.95 2.07,0 3.8925,-6.6375 3.7125,-0.1125 0,1.35 -2.2275,0.45 -3.42,5.6925 4.635,6.4575 1.9125,0.45 0,1.35 -6.4125,0 0,-1.35 1.9125,-0.45 -3.87,-5.4 -2.205,0 0,5.4 2.1375,0.45 z"
         style="font-style:normal;font-variant:normal;font-weight:normal;font-stretch:normal;font-size:22.5px;font-family:Bitter;-inkscape-font-specification:Bitter;fill:none;fill-opacity:1;stroke:#000000;stroke-opacity:1;stroke-width:0.03543307;stroke-miterlimit:4;stroke-dasharray:none"
         id="path11672" />
      <path
         d="m -743.14449,-823.51549 -4.8375,0 0,4.8375 5.175,0 0,1.8 -5.175,0 0,5.5125 5.175,0 0.45,-2.25 1.4625,0 0,4.05 -11.3625,0 0,-1.35 1.9125,-0.45 0,-12.15 -1.9125,-0.45 0,-1.2375 4.275,-0.1125 6.8625,0 0,3.825 -1.4625,0 -0.5625,-2.025 z"
         style="font-style:normal;font-variant:normal;font-weight:normal;font-stretch:normal;font-size:22.5px;font-family:Bitter;-inkscape-font-specification:Bitter;fill:none;fill-opacity:1;stroke:#000000;stroke-opacity:1;stroke-width:0.03543307;stroke-miterlimit:4;stroke-dasharray:none"
         id="path11674" />
      <path
         d="m -735.38199,-809.56549 0,-1.35 1.9125,-0.45 0,-4.0275 -4.3425,-8.145 -1.5075,-0.4275 0,-1.2375 5.625,-0.1125 0,1.35 -1.53,0.45 2.9925,6.3 3.3075,-6.3 -1.7325,-0.45 0,-1.2375 5.4,-0.1125 0,1.35 -1.395,0.405 -4.455,8.1225 0,4.0725 1.9125,0.45 0,1.35 -6.1875,0 z"
         style="font-style:normal;font-variant:normal;font-weight:normal;font-stretch:normal;font-size:22.5px;font-family:Bitter;-inkscape-font-specification:Bitter;fill:none;fill-opacity:1;stroke:#000000;stroke-opacity:1;stroke-width:0.03543307;stroke-miterlimit:4;stroke-dasharray:none"
         id="path11676" />
      <path
         d="m -724.14254,-809.56549 0,-1.35 1.9125,-0.45 0,-12.15 -1.9125,-0.45 0,-1.2375 4.1625,-0.1125 2.5875,0 q 2.205,0 3.51,0.99 1.3275,0.99 1.3275,2.9475 0,2.9025 -2.925,3.645 1.755,0.405 2.61,1.35 0.8775,0.945 0.8775,2.3175 0,4.5 -5.7375,4.5 l -6.4125,0 z m 4.1625,-7.3125 0,5.5125 2.3625,0 q 3.2625,0 3.2625,-2.5875 0,-1.62 -0.99,-2.2725 -0.9675,-0.6525 -2.9475,-0.6525 l -1.6875,0 z m 0,-6.6375 0,4.95 1.6875,0 q 1.575,0 2.475,-0.63 0.9,-0.6525 0.9,-1.8675 0,-1.2375 -0.72,-1.845 -0.72,-0.6075 -1.8675,-0.6075 l -2.475,0 z"
         style="font-style:normal;font-variant:normal;font-weight:normal;font-stretch:normal;font-size:22.5px;font-family:Bitter;-inkscape-font-specification:Bitter;fill:none;fill-opacity:1;stroke:#000000;stroke-opacity:1;stroke-width:0.03543307;stroke-miterlimit:4;stroke-dasharray:none"
         id="path11678" />
      <path
         d="m -709.49821,-817.26049 q 0,-1.89 0.495,-3.42 0.5175,-1.53 1.485,-2.61 0.9675,-1.1025 2.295,-1.665 1.35,-0.585 2.9925,-0.585 1.6425,0 2.9475,0.5625 1.305,0.54 2.205,1.575 0.9225,1.035 1.395,2.4975 0.4725,1.4625 0.4725,3.285 0,1.8225 -0.54,3.3525 -0.54,1.5075 -1.53,2.61 -0.9675,1.08 -2.34,1.71 -1.3725,0.6075 -3.0375,0.6075 -3.3075,0 -5.085,-2.0475 -1.755,-2.0475 -1.755,-5.8725 z m 7.2,-6.3675 q -4.6125,0 -4.6125,6.1875 0,6.1875 4.3875,6.1875 2.25,0 3.4875,-1.575 1.2375,-1.575 1.2375,-4.725 0,-6.075 -4.5,-6.075 z"
         style="font-style:normal;font-variant:normal;font-weight:normal;font-stretch:normal;font-size:22.5px;font-family:Bitter;-inkscape-font-specification:Bitter;fill:none;fill-opacity:1;stroke:#000000;stroke-opacity:1;stroke-width:0.03543307;stroke-miterlimit:4;stroke-dasharray:none"
         id="path11680" />
      <path
         d="m -693.72887,-809.56549 0,-1.35 1.845,-0.4275 5.13,-13.86 2.25,-0.1125 4.995,13.9725 1.8675,0.4275 0,1.35 -6.525,0 0,-1.35 2.0925,-0.4275 -0.855,-2.4975 -5.85,0 -0.8775,2.4975 2.115,0.4275 0,1.35 -6.1875,0 z m 7.92,-12.8475 -2.3625,6.7725 4.635,0 -2.2725,-6.7725 z"
         style="font-style:normal;font-variant:normal;font-weight:normal;font-stretch:normal;font-size:22.5px;font-family:Bitter;-inkscape-font-specification:Bitter;fill:none;fill-opacity:1;stroke:#000000;stroke-opacity:1;stroke-width:0.03543307;stroke-miterlimit:4;stroke-dasharray:none"
         id="path11682" />
      <path
         d="m -676.63766,-809.56549 0,-1.35 1.9125,-0.45 0,-12.15 -1.9125,-0.45 0,-1.2375 4.275,-0.1125 2.475,0 q 2.385,0 3.7125,1.08 1.35,1.08 1.35,2.97 0,3.3075 -2.925,4.3875 0.54,0.4725 1.35,2.025 l 1.7775,3.5775 1.5975,0.36 0,1.35 -3.375,0 -1.9125,-4.1625 q -0.7875,-1.6875 -1.3725,-2.1825 -0.5625,-0.5175 -1.665,-0.5175 l -1.0125,0 0,5.0625 1.9125,0.45 0,1.35 -6.1875,0 z m 4.275,-13.95 0,5.4 1.6875,0 q 1.6425,0 2.565,-0.7425 0.9225,-0.7425 0.9225,-1.9575 0,-1.2375 -0.7875,-1.9575 -0.7875,-0.7425 -2.025,-0.7425 l -2.3625,0 z"
         style="font-style:normal;font-variant:normal;font-weight:normal;font-stretch:normal;font-size:22.5px;font-family:Bitter;-inkscape-font-specification:Bitter;fill:none;fill-opacity:1;stroke:#000000;stroke-opacity:1;stroke-width:0.03543307;stroke-miterlimit:4;stroke-dasharray:none"
         id="path11684" />
      <path
         d="m -657.27887,-811.36549 2.5875,0 q 2.2275,0 3.465,-1.53 1.26,-1.53 1.26,-4.6125 0,-3.105 -1.215,-4.545 -1.215,-1.4625 -3.3975,-1.4625 l -2.7,0 0,12.15 z m -4.275,1.8 0,-1.35 1.9125,-0.45 0,-12.15 -1.9125,-0.45 0,-1.2375 4.275,-0.1125 2.8125,0 q 1.665,0 2.97,0.5175 1.3275,0.495 2.2275,1.485 0.9225,0.9675 1.395,2.4075 0.495,1.4175 0.495,3.2625 0,1.845 -0.54,3.33 -0.5175,1.485 -1.485,2.5425 -0.9675,1.0575 -2.34,1.6425 -1.3725,0.5625 -3.06,0.5625 l -6.75,0 z"
         style="font-style:normal;font-variant:normal;font-weight:normal;font-stretch:normal;font-size:22.5px;font-family:Bitter;-inkscape-font-specification:Bitter;fill:none;fill-opacity:1;stroke:#000000;stroke-opacity:1;stroke-width:0.03543307;stroke-miterlimit:4;stroke-dasharray:none"
         id="path11686" />
    </g>
  </g>
</svg>
